<svg width="25" height="15" viewBox="0 0 25 15" fill="none" xmlns="http://www.w3.org/2000/svg">
<path d="M24 7.5C24 7.5 18.9 14 12.5 14C6.1 14 1 7.5 1 7.5C1 7.5 6.1 1 12.5 1C18.9 1 24 7.5 24 7.5Z" stroke="#00C38D" stroke-miterlimit="10" stroke-linecap="round" stroke-linejoin="round"/>
<path d="M12.5 11.5C14.7091 11.5 16.5 9.70914 16.5 7.5C16.5 5.29086 14.7091 3.5 12.5 3.5C10.2909 3.5 8.5 5.29086 8.5 7.5C8.5 9.70914 10.2909 11.5 12.5 11.5Z" stroke="#00C38D" stroke-miterlimit="10" stroke-linecap="round" stroke-linejoin="round"/>
<path d="M12.5 5.5C13.6 5.5 14.5 6.4 14.5 7.5C14.5 8.6 13.6 9.5 12.5 9.5C11.4 9.5 10.5 8.6 10.5 7.5" stroke="#00C38D" stroke-miterlimit="10" stroke-linecap="round" stroke-linejoin="round"/>
</svg>
