<svg width="20" height="20" viewBox="0 0 20 20" fill="none" xmlns="http://www.w3.org/2000/svg">
<g clip-path="url(#clip0)">
<path fill-rule="evenodd" clip-rule="evenodd" d="M19.9876 5.69643V16.255C19.9876 16.9438 19.4276 17.5042 18.7389 17.5042H14.9908C14.6458 17.5042 14.3664 17.2243 14.3664 16.8799C14.3664 16.5349 14.6458 16.255 14.9908 16.255H18.7389V6.25873H14.3664C14.0214 6.25873 13.7414 5.97946 13.7414 5.63444V1.23056H7.50014C7.15514 1.23056 6.87076 0.981341 6.87076 0.636945C6.87076 0.291924 7.15014 0.0120239 7.49514 0.0120239H14.3664C14.3795 0.0120239 14.3908 0.0189118 14.4039 0.019538C14.4614 0.0232951 14.517 0.0345662 14.5714 0.0533514C14.5901 0.0602393 14.6095 0.0652487 14.6276 0.073389C14.6933 0.104071 14.7551 0.141642 14.8076 0.194867L19.737 5.12473C19.757 5.13851 19.7664 5.16293 19.7845 5.17858C19.8026 5.19549 19.8164 5.2149 19.8326 5.23369C19.9295 5.34389 20.0001 5.47664 20.0001 5.63444C20.0001 5.65636 19.9901 5.67514 19.9876 5.69643ZM14.9908 2.14477V5.00952H17.8551L14.9908 2.14477ZM7.53264 2.5186C7.59014 2.52236 7.64576 2.533 7.70014 2.55241C7.71951 2.5593 7.73826 2.56368 7.75701 2.57245C7.82201 2.60251 7.88389 2.6407 7.93701 2.69393L12.8658 7.62379C12.8858 7.63757 12.8958 7.66199 12.9139 7.67827C12.932 7.69455 12.9458 7.71396 12.962 7.73275C13.0583 7.84295 13.1295 7.9757 13.1295 8.1335C13.1295 8.15542 13.1189 8.17357 13.117 8.19549V18.754C13.117 19.4428 12.5564 20.0033 11.8676 20.0033H1.24889C0.560137 20.0033 -0.000488281 19.4428 -0.000488281 18.754V3.7603C-0.000488281 3.07151 0.560137 2.51108 1.24889 2.51108H7.49514C7.50889 2.51108 7.51951 2.51797 7.53264 2.5186ZM8.12014 4.64383V7.50858H10.9845L8.12014 4.64383ZM6.87076 8.1335V3.73525H1.25014L1.24889 18.754H11.8676V8.75842H7.49514C7.15014 8.75842 6.87076 8.4779 6.87076 8.1335Z" fill="#00C38D"/>
</g>
<defs>
<clipPath id="clip0">
<rect width="20" height="20" fill="white"/>
</clipPath>
</defs>
</svg>
