<svg viewBox="0 0 21 23" fill="none" xmlns="http://www.w3.org/2000/svg">
<path d="M17.428 12.8734H20.083V10.1077H17.428C17.262 9.27805 16.9301 8.0796 16.5983 7.43428L18.5066 5.31395L16.1834 2.73268L14.2751 4.85301C13.6943 4.39207 12.5328 4.1155 11.869 3.93113V0.888916H9.37992V3.83894C8.55022 4.11551 7.47162 4.39207 6.89083 4.85301L4.98253 2.73268L2.65939 5.31395L4.56769 7.43428C4.15284 8.0796 3.90393 9.37024 3.73799 10.1077H1V12.8734H3.65502C3.82096 13.7031 4.15284 14.9015 4.48472 15.5468L2.57642 17.6672L4.89956 20.2484L6.80786 18.1281C7.38865 18.5891 8.55022 18.8656 9.21398 19.05V22H11.7031V19.05C12.4498 18.8656 13.5284 18.4969 14.1092 18.1281L16.0175 20.2484L18.3406 17.6672L16.4323 15.5468C16.9301 14.9015 17.179 13.7031 17.428 12.8734Z" stroke="#00C38D" stroke-miterlimit="10" stroke-linecap="round" stroke-linejoin="round"/>
<path d="M10.5415 15.639C12.6035 15.639 14.2751 13.7817 14.2751 11.4905C14.2751 9.19938 12.6035 7.34204 10.5415 7.34204C8.47946 7.34204 6.80786 9.19938 6.80786 11.4905C6.80786 13.7817 8.47946 15.639 10.5415 15.639Z" stroke="#00C38D" stroke-miterlimit="10" stroke-linecap="round" stroke-linejoin="round"/>
</svg>
