<svg width="16" height="14" viewBox="0 0 16 14" fill="none" xmlns="http://www.w3.org/2000/svg">
<path d="M15.922 13.3477L8.32425 0.188246C8.25702 0.0716711 8.13265 0 7.9982 0C7.86375 0 7.73933 0.0717147 7.67211 0.188246L0.0504508 13.3888C-0.0168169 13.5054 -0.0168169 13.6488 0.0504508 13.7654C0.117675 13.882 0.242053 13.9537 0.376544 13.9537H15.6197C15.6209 13.9537 15.6222 13.9537 15.6234 13.9537C15.8314 13.9537 16 13.7853 16 13.577C16 13.4906 15.9708 13.4113 15.922 13.3477ZM1.02882 13.2006L7.9982 1.1296L14.9675 13.2006H1.02882Z" />
<path d="M7.62152 4.94074V10.3419C7.62152 10.55 7.7901 10.7185 7.9981 10.7185C8.20605 10.7185 8.37463 10.5501 8.37463 10.3419V4.94074C8.37463 4.73297 8.20605 4.56421 7.9981 4.56421C7.7901 4.56425 7.62152 4.73301 7.62152 4.94074Z" />
<path d="M7.99832 11.157C7.74015 11.157 7.53076 11.3662 7.53076 11.6244C7.53076 11.8826 7.74015 12.0922 7.99832 12.0922C8.25645 12.0922 8.46588 11.8825 8.46588 11.6244C8.46588 11.3662 8.25649 11.157 7.99832 11.157Z" />
</svg>
